<?xml version="1.0" encoding="UTF-8"?>
<svg id="Layer_1" data-name="Layer 1" xmlns="http://www.w3.org/2000/svg" viewBox="0 0 445.42 99.92">
  <defs>
    <style>
      .cls-1 {
        fill: #fff;
      }
    </style>
  </defs>
  <path class="cls-1" d="M12.17,97.6H0V12.17h12.17v85.43Z"/>
  <path class="cls-1" d="M89.02,29.69c3.12,3,4.69,7.42,4.69,13.27v54.64h-12.17v-55.01c0-4.46-.85-7.81-2.56-10.04-1.7-2.23-4.02-3.35-6.94-3.35s-6.15,1.01-9.68,3.04c-3.53,2.03-7.02,4.91-10.47,8.64-3.45,3.73-6.47,8.07-9.07,13.02v43.69h-12.17V27.26h12.17v23.61c4.87-8.44,10.42-14.83,16.67-19.17,6.25-4.34,12.25-6.51,18.01-6.51,4.54,0,8.38,1.5,11.5,4.5Z"/>
  <path class="cls-1" d="M122.98,97.18c-3.69-1.83-6.67-4.48-8.94-7.97-2.27-3.49-3.41-7.58-3.41-12.29V28.96h-7.3v-1.7h9.01c2.92-3.24,5.11-7.2,6.57-11.87,1.46-4.66,2.19-9.8,2.19-15.39h1.58l.12,27.26h18.62v1.7h-18.62v55.98c0,4.3.97,7.63,2.92,9.98,1.95,2.35,4.38,3.53,7.3,3.53,3.41,0,6.88-1.62,10.41-4.87,3.53-3.24,6.51-7.71,8.94-13.39l3.41,7.42c-2.19,4.06-5.17,7.12-8.95,9.19-3.77,2.07-7.81,3.1-12.11,3.1s-8.05-.91-11.74-2.74Z"/>
  <path class="cls-1" d="M175.85,94.5c-5.76-3.2-10.34-7.73-13.75-13.57-3.41-5.84-5.11-12.54-5.11-20.08s1.72-13.89,5.17-19.29c3.45-5.4,7.93-9.47,13.45-12.23,5.52-2.76,11.32-4.14,17.4-4.14,5.43,0,10.48,1.12,15.15,3.35,4.66,2.23,8.42,5.54,11.26,9.92,2.84,4.38,4.26,9.74,4.26,16.06,0,2.6-.37,5.44-1.1,8.52h-53.43c.16,6.98,1.32,13.08,3.47,18.32,2.15,5.23,5.05,9.27,8.7,12.11,3.65,2.84,7.75,4.26,12.29,4.26,4.3,0,8.8-1.46,13.51-4.38,4.7-2.92,9.33-7.3,13.87-13.14l2.56,8.52c-4.54,3.57-9.27,6.23-14.18,7.97-4.91,1.74-9.8,2.62-14.67,2.62-6.81,0-13.1-1.6-18.86-4.81ZM212,61.34c.49-2.68.73-5.23.73-7.67,0-5.76-.89-10.65-2.68-14.66-1.79-4.02-4.18-7.04-7.18-9.07-3-2.03-6.25-3.04-9.74-3.04-3.98,0-7.79,1.34-11.44,4.02-3.65,2.68-6.65,6.61-9.01,11.81-2.35,5.19-3.53,11.4-3.53,18.62h42.84Z"/>
  <path class="cls-1" d="M235.12,97.6V27.26h12.17v35.17h.12c2.76-11.36,6.77-20.26,12.05-26.71,5.27-6.45,11.28-9.67,18.01-9.67,2.27,0,4.58.41,6.94,1.22l-1.7,8.52c-3.08-1.54-6.13-2.31-9.13-2.31-6.01,0-11.24,2.96-15.7,8.88-4.46,5.92-7.99,14.24-10.59,24.95v30.3h-12.17Z"/>
  <path class="cls-1" d="M295.42,17.71c-1.34-1.34-2.01-2.94-2.01-4.81s.67-3.47,2.01-4.81,2.94-2.01,4.81-2.01,3.47.67,4.81,2.01,2.01,2.94,2.01,4.81-.67,3.47-2.01,4.81-2.94,2.01-4.81,2.01-3.47-.67-4.81-2.01ZM306.32,97.6h-12.17V27.26h12.17v70.34Z"/>
  <path class="cls-1" d="M333.58,95.11c-5.11-3.04-9.03-7.36-11.74-12.96-2.72-5.6-4.08-12.09-4.08-19.47s1.36-14.04,4.08-19.71c2.72-5.68,6.63-10.06,11.74-13.14,5.11-3.08,11.2-4.62,18.25-4.62s12.78,1.56,17.89,4.69c5.11,3.12,9.05,7.51,11.8,13.14,2.76,5.64,4.14,12.19,4.14,19.65s-1.38,13.87-4.14,19.47c-2.76,5.6-6.69,9.92-11.8,12.96-5.11,3.04-11.08,4.56-17.89,4.56s-13.14-1.52-18.25-4.56ZM363.7,93.1c3.37-3.24,5.94-7.56,7.73-12.96,1.78-5.39,2.68-11.21,2.68-17.46s-.89-11.87-2.68-17.34c-1.79-5.48-4.36-9.92-7.73-13.33-3.37-3.41-7.32-5.11-11.87-5.11-4.87,0-8.99,1.68-12.35,5.05-3.37,3.37-5.88,7.79-7.55,13.26-1.66,5.48-2.49,11.3-2.49,17.46s.83,12.17,2.49,17.53c1.66,5.35,4.18,9.66,7.55,12.9,3.37,3.25,7.48,4.87,12.35,4.87,4.54,0,8.5-1.62,11.87-4.87Z"/>
  <path class="cls-1" d="M396.13,97.6V27.26h12.17v35.17h.12c2.76-11.36,6.77-20.26,12.05-26.71,5.27-6.45,11.28-9.67,18.01-9.67,2.27,0,4.58.41,6.94,1.22l-1.7,8.52c-3.08-1.54-6.13-2.31-9.13-2.31-6.01,0-11.24,2.96-15.7,8.88-4.46,5.92-7.99,14.24-10.59,24.95v30.3h-12.17Z"/>
</svg>